# This file uses centimeters as units for non-parametric coordinates.

mtllib Libro.mtl
g default
v -0.605643 3.376297 0.246885
v -0.605643 5.013968 0.246885
v -0.605643 5.013968 -0.246885
v -0.605643 3.376297 -0.246885
v -0.605643 5.013968 0.185164
v 0.560845 5.013968 0.185164
v 0.560845 3.376297 0.185164
v -0.605643 3.376297 0.185164
v -0.605643 3.376297 -0.185164
v 0.560845 3.376297 -0.185164
v 0.560845 5.013968 -0.185164
v -0.605643 5.013968 -0.185164
v 0.453067 3.376297 0.246885
v 0.453067 3.376297 0.185164
v 0.453067 3.376297 -0.185164
v 0.453067 3.376297 -0.246885
v 0.453067 5.013968 -0.246885
v 0.453067 5.013968 -0.185164
v 0.453067 5.013968 0.185164
v 0.453067 5.013968 0.246885
v -0.539033 3.430886 0.172820
v -0.539033 4.959379 0.172820
v -0.539033 4.959379 -0.172820
v -0.539033 3.430886 -0.172820
v 0.449095 3.430886 0.172820
v 0.449095 3.430886 -0.172820
v 0.449095 4.959379 0.172820
v 0.449095 4.959379 -0.172820
v 0.496877 3.376297 0.246885
v 0.496877 5.013968 0.246885
v 0.496877 5.013968 -0.246885
v 0.496877 3.376297 -0.246885
v 0.496877 5.013968 0.185164
v 0.496877 5.013968 -0.185164
v 0.496877 3.376297 -0.185164
v 0.496877 3.376297 0.185164
vt 0.703741 0.428753
vt 0.607237 0.428753
vt 0.607237 0.001992
vt 0.703741 0.001992
vt 0.591153 0.001992
vt 0.591153 0.428753
vt 0.719825 0.428753
vt 0.719825 0.001992
vt 0.409233 0.432644
vt 0.409233 0.830955
vt 0.319163 0.830955
vt 0.319163 0.432644
vt 0.726058 0.428753
vt 0.726058 0.001992
vt 0.742142 0.001992
vt 0.742142 0.428753
vt 0.748859 0.001992
vt 0.764942 0.001992
vt 0.764942 0.428753
vt 0.748859 0.428753
vt 0.195939 0.837015
vt 0.195939 0.740511
vt 0.210164 0.743728
vt 0.210164 0.833798
vt 0.231065 0.740511
vt 0.231065 0.837015
vt 0.216840 0.833798
vt 0.216840 0.743728
vt 0.297098 0.460730
vt 0.200594 0.460730
vt 0.200594 0.449314
vt 0.297098 0.449314
vt 0.184510 0.460730
vt 0.184510 0.449314
vt 0.200594 0.432645
vt 0.297098 0.432645
vt 0.313181 0.460730
vt 0.313181 0.449314
vt 0.184510 0.736620
vt 0.200594 0.736620
vt 0.297098 0.736620
vt 0.313181 0.736620
vt 0.065941 0.449314
vt 0.162444 0.449314
vt 0.162444 0.460730
vt 0.065941 0.460730
vt 0.162444 0.432644
vt 0.065941 0.432644
vt 0.178528 0.460730
vt 0.178528 0.449314
vt 0.049857 0.460730
vt 0.049857 0.449314
vt 0.162444 0.736620
vt 0.178528 0.736620
vt 0.049857 0.736620
vt 0.065941 0.736620
vt 0.001942 0.740511
vt 0.092012 0.740511
vt 0.092012 0.998008
vt 0.001942 0.998008
vt 0.099036 0.998008
vt 0.099036 0.740511
vt 0.189106 0.740511
vt 0.189106 0.998008
vt 0.277832 0.428753
vt 0.277832 0.001992
vt 0.289248 0.001992
vt 0.289248 0.428753
vt 0.001942 0.001992
vt 0.001942 0.428753
vt 0.572532 0.428753
vt 0.572532 0.001992
vt 0.583949 0.001992
vt 0.583949 0.428753
vt 0.296643 0.001992
vt 0.296643 0.428753
vt 0.697086 0.859405
vt 0.697086 0.432644
vt 0.714444 0.446870
vt 0.714444 0.845180
vt 0.972975 0.432644
vt 0.971940 0.446870
vt 0.972975 0.859405
vt 0.971940 0.845180
vt 0.415215 0.859406
vt 0.415215 0.432644
vt 0.432573 0.446870
vt 0.432573 0.845180
vt 0.691104 0.432644
vt 0.690069 0.446870
vt 0.691104 0.859406
vt 0.690069 0.845180
vn 0.000000 0.000000 1.000000
vn 0.000000 0.000000 1.000000
vn 0.000000 0.000000 1.000000
vn 0.000000 0.000000 1.000000
vn 0.000000 1.000000 0.000000
vn 0.000000 1.000000 0.000000
vn 0.000000 1.000000 0.000000
vn 0.000000 1.000000 0.000000
vn 0.000000 0.000000 -1.000000
vn 0.000000 0.000000 -1.000000
vn 0.000000 0.000000 -1.000000
vn 0.000000 0.000000 -1.000000
vn 0.000000 -1.000000 0.000000
vn 0.000000 -1.000000 0.000000
vn 0.000000 -1.000000 0.000000
vn 0.000000 -1.000000 0.000000
vn 1.000000 0.000000 0.000000
vn 1.000000 0.000000 0.000000
vn 1.000000 0.000000 0.000000
vn 1.000000 0.000000 0.000000
vn -1.000000 0.000000 0.000000
vn -1.000000 0.000000 0.000000
vn -1.000000 0.000000 0.000000
vn -1.000000 0.000000 0.000000
vn 0.000000 1.000000 0.000000
vn 0.000000 1.000000 0.000000
vn 0.000000 1.000000 0.000000
vn 0.000000 1.000000 0.000000
vn 0.000000 -1.000000 0.000000
vn 0.000000 -1.000000 0.000000
vn 0.000000 -1.000000 0.000000
vn 0.000000 -1.000000 0.000000
vn -1.000000 0.000000 0.000000
vn -1.000000 0.000000 0.000000
vn -1.000000 0.000000 0.000000
vn -1.000000 0.000000 0.000000
vn 0.000000 -1.000000 0.000000
vn 0.000000 -1.000000 0.000000
vn 0.000000 -1.000000 0.000000
vn 0.000000 -1.000000 0.000000
vn 0.000000 1.000000 0.000000
vn 0.000000 1.000000 0.000000
vn 0.000000 1.000000 0.000000
vn 0.000000 1.000000 0.000000
vn -1.000000 0.000000 0.000000
vn -1.000000 0.000000 0.000000
vn -1.000000 0.000000 0.000000
vn -1.000000 0.000000 0.000000
vn 0.000000 -1.000000 0.000000
vn 0.000000 -1.000000 0.000000
vn 0.000000 -1.000000 0.000000
vn 0.000000 -1.000000 0.000000
vn 0.000000 -1.000000 0.000000
vn 0.000000 -1.000000 0.000000
vn 0.000000 -1.000000 0.000000
vn 0.000000 -1.000000 0.000000
vn 0.000000 -1.000000 0.000000
vn 0.000000 -1.000000 0.000000
vn 0.000000 -1.000000 0.000000
vn 0.000000 -1.000000 0.000000
vn 0.000000 0.000000 -1.000000
vn 0.000000 0.000000 -1.000000
vn 0.000000 0.000000 -1.000000
vn 0.000000 0.000000 -1.000000
vn 0.000000 1.000000 0.000000
vn 0.000000 1.000000 0.000000
vn 0.000000 1.000000 0.000000
vn 0.000000 1.000000 0.000000
vn 0.000000 1.000000 0.000000
vn 0.000000 1.000000 0.000000
vn 0.000000 1.000000 0.000000
vn 0.000000 1.000000 0.000000
vn 0.000000 1.000000 0.000000
vn 0.000000 1.000000 0.000000
vn 0.000000 1.000000 0.000000
vn 0.000000 1.000000 0.000000
vn 0.000000 0.000000 1.000000
vn 0.000000 0.000000 1.000000
vn 0.000000 0.000000 1.000000
vn 0.000000 0.000000 1.000000
vn -0.138610 -0.054477 -0.988848
vn -0.138610 0.054477 -0.988848
vn -0.112092 0.087067 -0.989876
vn -0.112092 -0.087067 -0.989876
vn -0.138610 0.054477 0.988848
vn -0.138610 -0.054477 0.988848
vn -0.112092 -0.087067 0.989876
vn -0.112092 0.087067 0.989876
vn -0.997364 -0.072558 0.000000
vn -0.997364 -0.072558 0.000000
vn -0.997364 -0.072558 0.000000
vn -0.997364 -0.072558 0.000000
vn 0.000000 -0.220562 -0.975373
vn -0.138610 -0.054477 -0.988848
vn -0.112092 -0.087067 -0.989876
vn 0.000000 -0.220562 -0.975373
vn -0.138610 -0.054477 0.988848
vn 0.000000 -0.220562 0.975373
vn 0.000000 -0.220562 0.975373
vn -0.112092 -0.087067 0.989876
vn -0.138610 0.054477 -0.988848
vn 0.000000 0.220562 -0.975373
vn 0.000000 0.220562 -0.975373
vn -0.112092 0.087067 -0.989876
vn -0.997364 0.072558 0.000000
vn -0.997364 0.072558 0.000000
vn -0.997364 0.072558 0.000000
vn -0.997364 0.072558 0.000000
vn 0.000000 0.220562 0.975373
vn -0.138610 0.054477 0.988848
vn -0.112092 0.087067 0.989876
vn 0.000000 0.220562 0.975373
vn 0.694356 0.000000 0.719632
vn 0.694356 0.000000 0.719632
vn 0.694356 0.000000 0.719632
vn 0.694356 0.000000 0.719632
vn 0.694356 0.000000 -0.719632
vn 0.694356 0.000000 -0.719632
vn 0.694356 0.000000 -0.719632
vn 0.694356 0.000000 -0.719632
vn 0.000000 1.000000 0.000000
vn 0.000000 1.000000 0.000000
vn 0.000000 1.000000 0.000000
vn 0.000000 1.000000 0.000000
vn 0.000000 1.000000 0.000000
vn 0.000000 1.000000 0.000000
vn 0.000000 1.000000 0.000000
vn 0.000000 1.000000 0.000000
vn 0.000000 1.000000 0.000000
vn 0.000000 1.000000 0.000000
vn 0.000000 -1.000000 0.000000
vn 0.000000 -1.000000 0.000000
vn 0.000000 -1.000000 0.000000
vn 0.000000 -1.000000 0.000000
vn 0.000000 -1.000000 0.000000
vn 0.000000 -1.000000 0.000000
vn 0.000000 -1.000000 0.000000
vn 0.000000 -1.000000 0.000000
vn 0.000000 -1.000000 0.000000
vn 0.000000 -1.000000 0.000000
s off
g pCube1
usemtl initialShadingGroup
f 20/65/1 13/66/2 29/67/3 30/68/4
f 18/29/5 19/30/6 33/31/7 34/32/8
f 16/71/9 17/72/10 31/73/11 32/74/12
f 35/43/13 36/44/14 14/45/15 15/46/16
f 11/1/17 6/2/18 7/3/19 10/4/20
f 21/9/21 22/10/22 23/11/23 24/12/24
f 19/30/25 20/33/26 30/34/27 33/31/28
f 13/49/29 14/45/30 36/44/31 29/50/32
f 5/13/33 8/14/34 1/15/35 2/16/36
f 15/46/37 16/51/38 32/52/39 35/43/40
f 17/37/41 18/29/42 34/32/43 31/38/44
f 4/17/45 9/18/46 12/19/47 3/20/48
f 8/53/49 14/45/50 13/49/51 1/54/52
f 26/57/53 25/58/54 21/59/55 24/60/56
f 4/55/57 16/51/58 15/46/59 9/56/60
f 3/75/61 17/72/62 16/71/63 4/76/64
f 12/41/65 18/29/66 17/37/67 3/42/68
f 22/61/69 27/62/70 28/63/71 23/64/72
f 2/39/73 20/33/74 19/30/75 5/40/76
f 1/69/77 13/66/78 20/65/79 2/70/80
f 8/77/81 5/78/82 22/79/83 21/80/84
f 12/85/85 9/86/86 24/87/87 23/88/88
f 15/21/89 14/22/90 25/23/91 26/24/92
f 14/83/93 8/77/94 21/80/95 25/84/96
f 9/86/97 15/89/98 26/90/99 24/87/100
f 5/78/101 19/81/102 27/82/103 22/79/104
f 19/25/105 18/26/106 28/27/107 27/28/108
f 18/91/109 12/85/110 23/88/111 28/92/112
f 29/5/113 7/3/114 6/2/115 30/6/116
f 31/7/117 11/1/118 10/4/119 32/8/120
f 33/31/121 30/34/122 6/35/123
f 34/32/124 33/31/125 6/35/126 11/36/127
f 31/38/128 34/32/129 11/36/130
f 35/43/131 32/52/132 10/48/133
f 7/47/134 36/44/135 35/43/136 10/48/137
f 29/50/138 36/44/139 7/47/140
